<svg 
 xmlns="http://www.w3.org/2000/svg"
 xmlns:xlink="http://www.w3.org/1999/xlink"
 width="26px" height="17px">
<path fill-rule="evenodd"  opacity="0.129" fill="rgb(6, 32, 51)"
 d="M17.030,2.197 L23.407,2.197 L23.407,3.826 L17.030,3.826 L17.030,2.197 ZM25.826,11.844 L17.523,11.844 C17.612,13.859 18.591,14.601 20.349,14.601 C21.619,14.601 22.644,14.195 22.844,13.478 L25.376,13.478 C24.487,16.208 22.844,16.994 20.239,16.994 C16.610,16.994 14.362,14.488 14.362,10.910 C14.362,7.441 16.745,4.800 20.239,4.800 C24.156,4.800 26.048,8.287 25.826,11.844 ZM17.523,9.479 L22.666,9.479 C22.376,7.869 21.685,7.196 20.149,7.196 C18.146,7.196 17.567,8.585 17.523,9.479 ZM13.532,12.049 C13.532,15.293 10.793,16.682 7.921,16.682 L0.219,16.682 L0.219,0.605 L7.701,0.605 C10.727,0.605 12.775,1.690 12.775,4.665 C12.775,6.234 11.996,7.328 10.614,8.001 C12.553,8.560 13.532,10.058 13.532,12.049 ZM6.687,3.309 L3.415,3.309 L3.415,7.045 L6.954,7.045 C8.178,7.045 9.091,6.486 9.091,5.145 C9.091,3.624 7.933,3.309 6.687,3.309 ZM7.220,9.439 L3.415,9.439 L3.415,13.825 L7.154,13.825 C8.534,13.825 9.735,13.378 9.735,11.722 C9.735,10.089 8.713,9.439 7.220,9.439 Z"/>
</svg>