<svg xmlns="http://www.w3.org/2000/svg" viewBox="0 0 92 92"><title>Ресурс 1</title><g id="Слой_2" data-name="Слой 2"><g id="All_glyphs" data-name="All glyphs"><path d="M43.83,33.1A239.05,239.05,0,0,0,29.24,10.47,39.34,39.34,0,0,0,7.56,37.9,144.9,144.9,0,0,0,43.83,33.1Zm4.89,13.2,1.55-.47c-1-2.23-2.07-4.47-3.19-6.67a144.47,144.47,0,0,1-40.33,5.6c0,.41,0,.82,0,1.24A39.15,39.15,0,0,0,16.79,72.27l0,0S27.52,53.16,48.72,46.3ZM21.86,77v0c-.29-.23-.6-.43-.89-.67C21.49,76.7,21.86,77,21.86,77ZM36.59,7.86l-.1,0,.09,0ZM72,16.52A39.1,39.1,0,0,0,46,6.72a39.79,39.79,0,0,0-9.26,1.1A201.65,201.65,0,0,1,51.43,30.74C66.24,25.19,71.84,16.68,72,16.52ZM46,92A46,46,0,1,1,92,46,46,46,0,0,1,46,92Zm6.68-39.57C29.63,60.46,22,76.62,21.86,77a39.28,39.28,0,0,0,39.48,5.23,163.85,163.85,0,0,0-8.4-29.84Zm1.77-15.84c.92,1.88,1.8,3.78,2.61,5.7.29.68.57,1.36.85,2a90.86,90.86,0,0,1,27.36,1.29,39.08,39.08,0,0,0-8.93-24.56C76.26,21.16,70,30.26,54.45,36.59ZM60.3,50.52A170.45,170.45,0,0,1,68,78.58,39.3,39.3,0,0,0,84.79,52.23,57.14,57.14,0,0,0,60.3,50.52Z"/></g></g></svg>