<svg 
 xmlns="http://www.w3.org/2000/svg"
 xmlns:xlink="http://www.w3.org/1999/xlink"
 width="26px" height="26px">
<path fill-rule="evenodd"  opacity="0.2" fill="rgb(6, 32, 51)"
 d="M23.842,25.802 L2.196,25.802 C1.107,25.802 0.224,25.001 0.224,23.912 L0.224,2.170 C0.224,1.081 1.107,0.197 2.196,0.197 L23.842,0.197 C24.931,0.197 25.814,1.081 25.814,2.170 L25.814,23.912 C25.814,25.001 24.931,25.802 23.842,25.802 ZM11.127,5.138 C9.959,5.138 8.827,5.325 8.063,5.698 C7.299,6.071 6.748,6.731 6.464,7.324 C6.179,7.918 6.037,8.640 6.037,9.844 L6.037,10.988 L4.122,10.988 L4.122,13.986 L6.037,13.986 L6.037,23.943 L10.129,23.943 L10.129,13.986 L12.681,13.986 L13.388,10.988 L10.129,10.988 L10.129,9.912 C10.129,9.184 10.261,8.691 10.526,8.435 C10.790,8.179 11.316,8.026 11.925,8.026 C12.543,8.026 13.040,8.315 13.665,8.679 L14.411,5.859 C13.263,5.535 12.325,5.138 11.127,5.138 Z"/>
</svg>