<svg xmlns="http://www.w3.org/2000/svg" viewBox="0 0 70 100"><title>Ресурс 1</title><g id="Слой_2" data-name="Слой 2"><g id="All_glyphs" data-name="All glyphs"><path d="M6.27,98.81c1.53-5,3.85-12.06,7-22.26C26.76,74.37,32.36,78.29,41,62.63c-7,2.18-15.38-4-14.93-6.74s19.56,2,32.08-16.19c-15.78,3.55-20.82-4.26-18.79-5.44,4.7-2.73,18.63-1.13,26.07-8.52,3.82-3.8,5.62-13,4.06-16.34C67.57,5.42,56.16-.52,49.87,0S33.71,24.48,30.79,24.29,27.27,13.6,32.38,3.82C27,6.25,17.13,13.82,14,20.28c-5.76,12,.54,39.62-1.48,40.6S3.72,48.22,1.69,42C-1.08,51.52-1.15,61,7,73.64A88.82,88.82,0,0,0,2,96.29C1.86,100.17,5.6,101,6.27,98.81Z"/></g></g></svg>