<svg 
 xmlns="http://www.w3.org/2000/svg"
 xmlns:xlink="http://www.w3.org/1999/xlink"
 width="23px" height="26px">
<path fill-rule="evenodd"  opacity="0.2" fill="rgb(6, 32, 51)"
 d="M22.122,25.536 C22.014,25.702 21.834,25.801 21.639,25.801 L12.790,25.801 L12.790,21.000 L16.719,18.600 C17.153,18.600 17.504,18.242 17.504,17.800 C17.504,17.358 17.153,17.000 16.719,17.000 L12.790,19.400 L12.790,16.600 L15.147,15.400 C15.581,15.400 15.933,15.042 15.933,14.600 C15.933,14.158 15.581,13.800 15.147,13.800 L12.790,15.000 L12.790,13.800 C12.790,13.358 12.438,13.000 12.004,13.000 L10.433,13.000 C9.999,13.000 9.647,13.358 9.647,13.800 L9.647,18.867 L6.504,17.800 C6.070,17.800 5.719,18.158 5.719,18.600 C5.719,19.042 6.070,19.400 6.504,19.400 L9.647,20.467 L9.647,25.801 L0.798,25.801 C0.604,25.801 0.423,25.701 0.316,25.536 C0.210,25.370 0.192,25.160 0.270,24.977 L10.708,0.551 C10.799,0.337 11.007,0.199 11.236,0.199 C11.466,0.199 11.674,0.337 11.765,0.552 L22.168,24.979 C22.245,25.160 22.228,25.371 22.122,25.536 Z"/>
</svg>