<svg xmlns="http://www.w3.org/2000/svg" viewBox="0 0 86 70"><title>Ресурс 1</title><g id="Слой_2" data-name="Слой 2"><g id="All_glyphs" data-name="All glyphs"><path d="M79,5.75a22.79,22.79,0,0,0-30.27,0L43,11,37.32,5.75a22.79,22.79,0,0,0-30.27,0A20.85,20.85,0,0,0,7.05,37L43,70,79,37A20.85,20.85,0,0,0,79,5.75ZM73.62,31.88,43,60.45,12.38,31.88a13.7,13.7,0,0,1-4.29-10.5c0-3.93.69-7.16,3.78-10A15.14,15.14,0,0,1,22.19,7.5c3.92,0,7.58,2.38,10.31,4.89L43,21.52l10.49-9.13c2.73-2.51,6.4-4.89,10.32-4.89a15.14,15.14,0,0,1,10.32,3.89c3.09,2.83,3.78,6.06,3.78,10A13.7,13.7,0,0,1,73.62,31.88Z"/></g></g></svg>