<svg xmlns="http://www.w3.org/2000/svg" viewBox="0 0 86 90"><title>Ресурс 1</title><g id="Слой_2" data-name="Слой 2"><g id="All_glyphs" data-name="All glyphs"><path d="M79.11,30.15C71.2,11.72,58.46-2.31,52,.32,41.06,4.76,58.53,26.13,4.77,48,.13,49.87-1,57.42.9,61.94s8.29,9,12.93,7.12c.81-.32,3.76-1.27,3.76-1.27,3.31,4.45,6.78,1.81,8,4.64l5.79,13.29c1.1,2.52,3.58,4.84,5.38,4.16L47,86a3.38,3.38,0,0,0,2.18-4.62c-.77-1.77-3.93-2.29-4.83-4.36s-3.85-8.7-4.7-10.79c-1.15-2.84,1.3-5.15,4.85-5.52,24.47-2.55,29,12.56,37.38,9.17C88.34,67.24,87,48.57,79.11,30.15ZM76.36,60c-1.43.58-11.06-7-17.22-21.33s-5.38-27.41-4-28,10.83,8.58,17,22.9S77.79,59.45,76.36,60Z"/></g></g></svg>